<?xml version="1.0" encoding="UTF-8"?>
<svg xmlns="http://www.w3.org/2000/svg" viewBox="0 0 500 500">
  <defs>
    <style>
      .cls-1 {
        fill: #e9e9e9;
      }

      .cls-2 {
        fill: #ffffff;
      }
    </style>
  </defs>
  <g id="_1" data-name="1">
    <path class="cls-1" d="M100,0h0V400C100,455.19,55.19,500,0,500H0V100C0,44.81,44.81,0,100,0Z"/>
  </g>
  <g id="_2" data-name="2">
    <path class="cls-1" d="M300,0V200h-100V100C200,44.77,244.77,0,300,0Z"/>
    <path class="cls-1" d="M200,300h100v100c0,55.23-44.77,100-100,100v-200Z"/>
  </g>
  <g id="_3" data-name="3">
    <path class="cls-2" d="M100,200C44.77,200,0,244.77,0,300H400c27.62,0,52.62-11.19,70.71-29.29,18.1-18.09,29.29-43.09,29.29-70.71H100Z"/>
  </g>
  <g id="_4" data-name="4">
    <rect class="cls-1" x="200" y="200" width="100" height="100"/>
  </g>
  <g id="_5" data-name="5">
    <path class="cls-2" d="M300,300h0c55.19,0,100,44.81,100,100v200h0c-55.19,0-100-44.81-100-100v-200h0Z" transform="translate(800 100) rotate(90)"/>
  </g>
  <g id="_6" data-name="6">
    <path class="cls-2" d="M300-100h0C355.19-100,400-55.19,400,0V200h0c-55.19,0-100-44.81-100-100V-100h0Z" transform="translate(400 -300) rotate(90)"/>
  </g>
</svg>